<svg id="Component_3_1" data-name="Component 3 – 1" xmlns="http://www.w3.org/2000/svg" width="119.397" height="99.748" viewBox="0 0 119.397 99.748">
  <ellipse id="Ellipse_9" data-name="Ellipse 9" cx="7.5" cy="7" rx="7.5" ry="7" transform="translate(30.998 34.31)" fill="#f19328"/>
  <ellipse id="Ellipse_10" data-name="Ellipse 10" cx="6" cy="7.5" rx="6" ry="7.5" transform="translate(74.998 33.31)" fill="#f15b2e"/>
  <ellipse id="Ellipse_14" data-name="Ellipse 14" cx="6" cy="7.5" rx="6" ry="7.5" transform="translate(96.998 2.31)" fill="#808285"/>
  <ellipse id="Ellipse_15" data-name="Ellipse 15" cx="6" cy="7.5" rx="6" ry="7.5" transform="translate(53.998 1.31)" fill="#bcbec0"/>
  <ellipse id="Ellipse_16" data-name="Ellipse 16" cx="6" cy="7.5" rx="6" ry="7.5" transform="translate(10.998 1.31)" fill="#f19328"/>
  <ellipse id="Ellipse_11" data-name="Ellipse 11" cx="6" cy="7.5" rx="6" ry="7.5" transform="translate(96.998 63.31)" fill="#808285"/>
  <ellipse id="Ellipse_12" data-name="Ellipse 12" cx="6" cy="7.5" rx="6" ry="7.5" transform="translate(53.998 63.31)" fill="#f19328"/>
  <ellipse id="Ellipse_13" data-name="Ellipse 13" cx="6" cy="7.5" rx="6" ry="7.5" transform="translate(9.998 63.31)" fill="#f15b2e"/>
  <path id="team" d="M25.348,123.191a38.308,38.308,0,0,0-4.967-.883A10.993,10.993,0,0,0,24.7,113.2c0-5.273-3.172-8.549-8.278-8.549s-8.277,3.276-8.277,8.549a11,11,0,0,0,4.307,9.1,35.63,35.63,0,0,0-4.967.9C2.659,124.437,0,127.121,0,130.753v9.511a1.613,1.613,0,0,0,3.227,0v-9.511c0-2.588,2.753-3.839,5.064-4.433a32.9,32.9,0,0,1,16.28,0c1.887.469,5.051,1.666,5.051,4.43v9.511a1.613,1.613,0,1,0,3.227,0v-9.511c0-3.623-2.734-6.38-7.5-7.562Zm-8.924-15.313c2.3,0,5.051.923,5.051,5.322,0,3.874-2.313,7.147-5.051,7.147s-5.051-3.273-5.051-7.147C11.373,108.8,14.12,107.878,16.424,107.878Zm52.2,15.313a38.268,38.268,0,0,0-4.966-.883,10.994,10.994,0,0,0,4.321-9.108c0-5.273-3.172-8.549-8.278-8.549s-8.278,3.276-8.278,8.549a11,11,0,0,0,4.308,9.1,35.63,35.63,0,0,0-4.966.9c-4.828,1.242-7.487,3.926-7.487,7.558v9.511a1.613,1.613,0,0,0,3.227,0v-9.511c0-2.588,2.753-3.839,5.064-4.433a32.9,32.9,0,0,1,16.278,0c1.887.469,5.051,1.666,5.051,4.43v9.511a1.613,1.613,0,1,0,3.227,0v-9.511C76.122,127.13,73.388,124.374,68.622,123.191ZM59.7,107.878c2.3,0,5.051.923,5.051,5.322,0,3.874-2.313,7.147-5.051,7.147s-5.051-3.273-5.051-7.147c0-4.4,2.747-5.322,5.051-5.322Zm52.2,15.313a38.315,38.315,0,0,0-4.967-.883,10.994,10.994,0,0,0,4.321-9.109c0-5.273-3.171-8.549-8.277-8.549s-8.278,3.276-8.278,8.549A11,11,0,0,0,99,122.3a35.642,35.642,0,0,0-4.968.9c-4.828,1.242-7.487,3.926-7.487,7.558v9.511a1.613,1.613,0,1,0,3.227,0v-9.511c0-2.588,2.753-3.839,5.064-4.433a32.9,32.9,0,0,1,16.28,0c1.887.468,5.051,1.666,5.051,4.43v9.511a1.613,1.613,0,1,0,3.227,0v-9.511c0-3.623-2.734-6.379-7.5-7.562Zm-8.923-15.313c2.3,0,5.051.923,5.051,5.322,0,3.874-2.313,7.147-5.051,7.147s-5.051-3.273-5.051-7.147C97.921,108.8,100.668,107.878,102.973,107.878ZM51.258,99.589a1.613,1.613,0,0,0,3.227,0c0-3.623-2.734-6.379-7.5-7.562a38.316,38.316,0,0,0-4.967-.883,10.992,10.992,0,0,0,4.322-9.109c0-5.273-3.172-8.549-8.278-8.549s-8.278,3.276-8.278,8.549a11,11,0,0,0,4.309,9.1,35.6,35.6,0,0,0-4.966.9c-4.829,1.241-7.489,3.925-7.489,7.558a1.613,1.613,0,1,0,3.227,0c0-2.588,2.754-3.839,5.065-4.433a32.875,32.875,0,0,1,16.279,0C48.094,95.628,51.258,96.825,51.258,99.589Zm-13.2-22.875c2.3,0,5.051.923,5.051,5.322,0,3.873-2.313,7.146-5.051,7.146S33.01,85.91,33.01,82.036C33.01,77.637,35.757,76.714,38.061,76.714ZM94.533,99.589a1.613,1.613,0,0,0,3.227,0c0-3.623-2.734-6.379-7.5-7.562a38.335,38.335,0,0,0-4.967-.882,10.992,10.992,0,0,0,4.322-9.109c0-5.273-3.172-8.549-8.278-8.549s-8.278,3.276-8.278,8.549a11,11,0,0,0,4.308,9.1,35.565,35.565,0,0,0-4.966.9c-4.829,1.241-7.487,3.925-7.487,7.558a1.613,1.613,0,0,0,3.227,0c0-2.588,2.753-3.839,5.064-4.433a32.875,32.875,0,0,1,16.278,0C91.368,95.628,94.533,96.826,94.533,99.589Zm-13.2-22.875c2.3,0,5.051.923,5.051,5.322,0,3.873-2.313,7.146-5.051,7.146s-5.051-3.273-5.051-7.146C76.284,77.637,79.03,76.714,81.335,76.714ZM44.887,69.846A1.614,1.614,0,0,0,46.5,68.232c0-2.588,2.754-3.839,5.065-4.433a32.875,32.875,0,0,1,16.278,0c1.887.468,5.051,1.665,5.051,4.43a1.613,1.613,0,0,0,3.227,0c0-3.624-2.734-6.38-7.5-7.562a38.322,38.322,0,0,0-4.967-.883,10.992,10.992,0,0,0,4.322-9.108c0-5.273-3.172-8.549-8.278-8.549s-8.278,3.276-8.278,8.549a11,11,0,0,0,4.309,9.1,35.6,35.6,0,0,0-4.966.9c-4.829,1.241-7.489,3.925-7.489,7.558a1.614,1.614,0,0,0,1.613,1.613ZM59.7,45.357c2.3,0,5.051.923,5.051,5.322,0,3.873-2.313,7.146-5.051,7.146s-5.051-3.273-5.051-7.146C54.647,46.28,57.394,45.357,59.7,45.357ZM111.9,60.67a38.314,38.314,0,0,0-4.966-.883,10.994,10.994,0,0,0,4.32-9.108c0-5.273-3.171-8.549-8.277-8.549s-8.278,3.276-8.278,8.549A11,11,0,0,0,99,59.777a35.6,35.6,0,0,0-4.967.9c-4.828,1.242-7.487,3.927-7.487,7.558a1.613,1.613,0,0,0,3.227,0c0-2.588,2.753-3.839,5.064-4.433a32.891,32.891,0,0,1,16.28,0c1.887.468,5.051,1.666,5.051,4.43v9.51a1.613,1.613,0,0,0,3.227,0v-9.51c0-3.623-2.734-6.38-7.5-7.562Zm-8.923-15.313c2.3,0,5.051.923,5.051,5.322,0,3.874-2.313,7.147-5.051,7.147s-5.051-3.273-5.051-7.147C97.921,46.28,100.668,45.357,102.973,45.357Zm-101.359,34a1.614,1.614,0,0,0,1.613-1.613v-9.51c0-2.588,2.753-3.839,5.064-4.433a32.891,32.891,0,0,1,16.28,0c1.887.468,5.051,1.666,5.051,4.43a1.613,1.613,0,0,0,3.227,0c0-3.623-2.734-6.379-7.5-7.562a38.3,38.3,0,0,0-4.967-.883A10.994,10.994,0,0,0,24.7,50.679c0-5.273-3.172-8.549-8.278-8.549s-8.277,3.276-8.277,8.549a11,11,0,0,0,4.307,9.1,35.63,35.63,0,0,0-4.967.9C2.659,61.916,0,64.6,0,68.232v9.51a1.614,1.614,0,0,0,1.613,1.613Zm14.81-34c2.3,0,5.051.923,5.051,5.322,0,3.874-2.313,7.147-5.051,7.147s-5.051-3.273-5.051-7.147c0-4.4,2.747-5.322,5.051-5.322Z" transform="translate(0 -42.13)" fill="#0d4064"/>
</svg>
