<svg xmlns="http://www.w3.org/2000/svg" width="129.954" height="73.779" viewBox="0 0 129.954 73.779">
  <g id="Group_23" data-name="Group 23" transform="translate(-575 -1975.002)">
    <g id="Group_9" data-name="Group 9" transform="translate(74 9.319)">
      <g id="worldwide_1_" data-name="worldwide(1)" transform="translate(558 1965.683)">
        <g id="Group_8" data-name="Group 8" transform="translate(3.973 3.769)">
          <path id="Path_49" data-name="Path 49" d="M303.493,41.763l-3.647,2.431-6.078-1.216-3.647-1.216-4.863,1.216-3.647-1.216,2.431-4.863H288.9l4.765-2.383A34.871,34.871,0,0,1,303.493,41.763Z" transform="translate(-245.457 -33.375)" fill="#f19328"/>
          <path id="Path_50" data-name="Path 50" d="M57.957,30.024l-1.216,3.647-3.647,1.216-3.647,6.078-6.078,3.647-8.51,1.216v3.647l2.431,2.431v4.863l-3.647-2.431L30,51.906l-2.115-6.358A35.233,35.233,0,0,1,47.21,26.5l3.453,2.31Z" transform="translate(-27.881 -26.499)" fill="#f19328"/>
          <path id="Path_51" data-name="Path 51" d="M102.382,224.283l-1.216,6.078L96.3,235.224v3.647l-4.863,3.647V248.6l-3.647-1.216L85.363,241.3V229.146l-6.078-1.216-2.431-4.863V219.42l2.431-2.431,3.647-3.647,2.431,4.863h8.51l3.647,6.078Z" transform="translate(-69.875 -186.719)" fill="#f19328"/>
          <path id="Path_52" data-name="Path 52" d="M301.406,121.72a35.22,35.22,0,0,1-1.945,37.527l-3.282-3.282V151.1l-2.431-4.863-2.431-4.863v-4.863l-3.647-2.431-4.863,1.216-8.51-3.647-1.216-8.51,3.647-3.647h7.294l2.431,3.647,7.294,1.216,7.294-2.431Z" transform="translate(-238.143 -106.244)" fill="#f19328"/>
        </g>
        <path id="Path_53" data-name="Path 53" d="M51.177,20.741l4.863-1.216,3.647,1.216,6.078,1.216,3.647-2.431a34.718,34.718,0,0,1,5.227,7.087l-.365.207L66.981,29.25l-7.294-1.216-2.431-3.647H49.961l-3.647,3.647,1.216,8.51,8.51,3.647L60.9,38.976l3.647,2.431v4.863l2.431,4.863,2.431,4.863v4.863l3.282,3.282A35.254,35.254,0,0,1,11.376,30.186l2.115,6.358,3.647,2.431,3.647,2.431-2.431,2.432v3.647l2.431,4.863,6.078,1.216V65.72L29.295,71.8l3.647,1.216V66.936L37.8,63.289V59.642l4.863-4.863L43.883,48.7H39.021l-3.647-6.078h-8.51L24.433,37.76l-3.647,3.647V36.544l-2.431-2.431V30.466l8.51-1.216L32.942,25.6l3.647-6.078,3.647-1.216,1.216-3.647-7.294-1.216-3.453-2.31A35.257,35.257,0,0,1,59.59,12.28l-4.765,2.383H49.962L47.53,19.525Z" transform="translate(-7.403 -7.369)" fill="#fff"/>
        <path id="Path_54" data-name="Path 54" d="M36.479,72.991A36.47,36.47,0,1,0,2.959,22.166l-.455.151.176.529a36.449,36.449,0,0,0,33.8,50.145ZM65.1,54.911l-1.876-1.875V48.678a1.218,1.218,0,0,0-.122-.543l-4.741-9.469V34.089a1.217,1.217,0,0,0-.541-1.011l-3.647-2.431a1.217,1.217,0,0,0-.972-.168L48.734,31.6l-7.5-3.219L40.2,21.145l2.86-2.859H49.2l2.067,3.106a1.215,1.215,0,0,0,.812.524l7.294,1.216a1.2,1.2,0,0,0,.583-.046l6.718-2.239a33.918,33.918,0,0,1-1.58,34.065h0ZM60.083,12.03l-1.977,1.318-5.511-1.1-3.575-1.19a1.2,1.2,0,0,0-.678-.027l-4.52,1.129L41.84,11.5l1.468-2.937H47.42a1.222,1.222,0,0,0,.543-.128l4.206-2.1A34.161,34.161,0,0,1,60.083,12.03ZM23.164,5.2l2.918,1.945a1.222,1.222,0,0,0,.475.187l5.891.982-.575,1.72L28.8,11.057a1.217,1.217,0,0,0-.658.526L24.654,17.4l-5.608,3.365-8.266,1.18a1.216,1.216,0,0,0-1.045,1.2V26.8a1.213,1.213,0,0,0,.356.859l2.075,2.075v2.088L7.109,28.446l-1.834-5.5A34.234,34.234,0,0,1,23.164,5.2ZM19.7,45.055l-5.495-1.1-2.042-4.074V37.024l4.53-4.53,1.676,3.354a1.216,1.216,0,0,0,1.088.672h7.822l3.293,5.489a1.215,1.215,0,0,0,1.042.59H35l-.851,4.263-4.6,4.6a1.213,1.213,0,0,0-.357.859v3.039l-4.376,3.282a1.215,1.215,0,0,0-.486.972v4.391l-1.512-.5-2.135-5.339V46.246A1.216,1.216,0,0,0,19.7,45.055ZM3.925,26.582l1.01,3.029a1.215,1.215,0,0,0,.478.627l6.06,4.04-1.382,1.383a1.212,1.212,0,0,0-.356.859v3.647a1.222,1.222,0,0,0,.128.543l2.431,4.863a1.216,1.216,0,0,0,.851.648l5.106,1.02V58.4a1.219,1.219,0,0,0,.086.451l2.431,6.078a1.217,1.217,0,0,0,.745.7l3.647,1.216a1.175,1.175,0,0,0,.378.063A1.216,1.216,0,0,0,26.754,65.7v-5.47l4.376-3.282a1.215,1.215,0,0,0,.486-.972V52.828l4.506-4.507a1.223,1.223,0,0,0,.332-.621l1.216-6.078a1.217,1.217,0,0,0-.954-1.431,1.2,1.2,0,0,0-.237-.023H32.3l-3.293-5.489a1.215,1.215,0,0,0-1.042-.59H20.211L18.123,29.9a1.214,1.214,0,0,0-.894-.656,1.192,1.192,0,0,0-1.054.34L14.6,31.155V29.227a1.213,1.213,0,0,0-.356-.859l-2.075-2.075V24.2l7.467-1.066a1.206,1.206,0,0,0,.453-.162l6.078-3.647a1.216,1.216,0,0,0,.416-.416L30,13.219l3.22-1.075a1.2,1.2,0,0,0,.768-.768L35.2,7.729a1.215,1.215,0,0,0-.773-1.535,1.293,1.293,0,0,0-.18-.045L27.211,4.976l-1.236-.824a33.945,33.945,0,0,1,23.38.869L47.133,6.129H42.558a1.214,1.214,0,0,0-1.094.672l-2.431,4.863a1.215,1.215,0,0,0,.546,1.63,1.279,1.279,0,0,0,.158.066l3.647,1.216a1.2,1.2,0,0,0,.678.027l4.52-1.129,3.311,1.1a.871.871,0,0,0,.146.039l6.078,1.216a1.205,1.205,0,0,0,.913-.18L61.8,13.805a34.333,34.333,0,0,1,3.657,4.886l-5.981,1.994L53,19.605,50.857,16.4a1.216,1.216,0,0,0-1.005-.541H42.558a1.213,1.213,0,0,0-.859.356l-3.647,3.647a1.213,1.213,0,0,0-.344,1.032l1.216,8.51a1.215,1.215,0,0,0,.729.945l8.51,3.647a1.2,1.2,0,0,0,.773.062l4.341-1.086L55.93,34.74v4.212a1.218,1.218,0,0,0,.122.543l4.741,9.469V53.54a1.213,1.213,0,0,0,.356.859l2.543,2.544A34.03,34.03,0,0,1,3.925,26.582Z" transform="translate(0 -0.051)" fill="#0d4064"/>
      </g>
    </g>
    <g id="Group_10" data-name="Group 10" transform="translate(576 1992)">
      <path id="Path_48" data-name="Path 48" d="M7,0a7,7,0,1,0,7,7A7,7,0,0,0,7,0Z" transform="translate(2.838 8)" fill="#0d4064" stroke="#58595b" stroke-width="2"/>
      <path id="Path_37" data-name="Path 37" d="M438.858,110.715V97a6.858,6.858,0,0,0,0,13.715Z" transform="translate(-428.883 -88.848)" fill="#fff" opacity="0.12"/>
      <path id="Path_38" data-name="Path 38" d="M353,249.415V262.9a3.794,3.794,0,0,0,3.8,3.783H369.95a1.871,1.871,0,0,0,1.87-1.87c0-1.818,1-11.031,1-15.4A8.45,8.45,0,0,0,364.359,241h-2.893A8.45,8.45,0,0,0,353,249.415Z" transform="translate(-353 -214.893)" fill="#0d4064" stroke="#58595b" stroke-width="2"/>
      <path id="Path_39" data-name="Path 39" d="M432,249.415V262.9a3.794,3.794,0,0,0,3.8,3.783h6.177V241h-1.509A8.45,8.45,0,0,0,432,249.415Z" transform="translate(-432 -214.893)" fill="#fff" opacity="0.13"/>
      <path id="Path_47" data-name="Path 47" d="M7,0a7,7,0,1,0,7,7A7,7,0,0,0,7,0Z" transform="translate(46.838 8)" fill="#f15b2e" stroke="#58595b" stroke-width="2"/>
      <path id="Path_40" data-name="Path 40" d="M86.858,110.715V97a6.858,6.858,0,0,0,0,13.715Z" transform="translate(-32.994 -88.848)" fill="#fff" opacity="0.13"/>
      <path id="Path_41" data-name="Path 41" d="M0,249.415c0,4.509,1,13.5,1,15.4a1.871,1.871,0,0,0,1.87,1.87H16.158a3.664,3.664,0,0,0,3.667-3.653V249.415A8.45,8.45,0,0,0,11.359,241H8.466A8.45,8.45,0,0,0,0,249.415Z" transform="translate(44.013 -214.894)" fill="#f15b2e" stroke="#58595b" stroke-width="2"/>
      <path id="Path_42" data-name="Path 42" d="M80,249.415c0,4.509,1,13.5,1,15.4a1.871,1.871,0,0,0,1.87,1.87H89.85V241H88.466A8.45,8.45,0,0,0,80,249.415Z" transform="translate(-35.987 -214.894)" fill="#fff" opacity="0.13"/>
      <path id="Path_46" data-name="Path 46" d="M11,0A11,11,0,1,0,22,11,11,11,0,0,0,11,0Z" transform="translate(20.838)" fill="#f19328" stroke="#58595b" stroke-width="2"/>
      <path id="Path_43" data-name="Path 43" d="M266.847,54.695V33a10.847,10.847,0,0,0,0,21.695Z" transform="translate(-234.928 -32.828)" fill="#fff" opacity="0.13"/>
      <path id="Path_44" data-name="Path 44" d="M121,256.089v10.219a4.371,4.371,0,0,0,4.366,4.366H150.3a4.371,4.371,0,0,0,4.366-4.366V256.089A15.106,15.106,0,0,0,139.575,241h-3.486A15.106,15.106,0,0,0,121,256.089Z" transform="translate(-105.913 -214.894)" fill="#f19328" stroke="#58595b" stroke-width="2"/>
      <path id="Path_45" data-name="Path 45" d="M256,256.089v10.219a4.371,4.371,0,0,0,4.366,4.366h12.466V241h-1.743A15.106,15.106,0,0,0,256,256.089Z" transform="translate(-240.913 -214.893)" fill="#fff" opacity="0.1"/>
    </g>
  </g>
</svg>
