<svg xmlns="http://www.w3.org/2000/svg" width="98.838" height="97.781" viewBox="0 0 98.838 97.781">
  <g id="Group_24" data-name="Group 24" transform="translate(-343 -1950)">
    <g id="india" transform="translate(343 1950)">
      <g id="Group_7" data-name="Group 7">
        <path id="Path_32" data-name="Path 32" d="M109.142,30.772l-2.885-4.249a1.485,1.485,0,0,0-1.268-.65l-5.594.146a1.485,1.485,0,0,0-1.2.66l-.57.853-5.8,3.714a1.486,1.486,0,0,0-.678,1.113l-.126,1.35H88.771L84.342,30.1a1.485,1.485,0,0,0-2.287.529l-1.844,3.994L62.569,27.092l1.012-3.858a1.485,1.485,0,0,0-.955-1.782l-1.464-.5L58.75,17.264l.345-.084A1.485,1.485,0,0,0,60.033,15L59.2,13.54,62.386,7a1.485,1.485,0,0,0-.569-1.923L58.953,3.353a1.477,1.477,0,0,0-.845-.211L52,3.465,44.378.125a1.486,1.486,0,0,0-1.359.086L38.912,2.669A1.486,1.486,0,0,0,38.7,5.06l2.29,2.007.126,5.088a1.486,1.486,0,0,0,.391.968l3.763,4.1-3.12,5.625a1.483,1.483,0,0,0-.186.693l-.012.618-5.486,6.029-2.782-.891a1.486,1.486,0,0,0-1.859.935L30.29,34.721a1.485,1.485,0,0,0,.5,1.659l.789.6,2.008,4.109.015.9-6.061,2.172a1.485,1.485,0,0,0-.152,2.732l1.854.908a1.486,1.486,0,0,0-.373,2.039l2.265,3.373a1.482,1.482,0,0,0,.576.5l3.674,1.812a1.485,1.485,0,0,0,1.838-.431l1.619-2.122.872,2.066-.523,2.75a1.486,1.486,0,0,0,.066.793L51.422,91.459a1.5,1.5,0,0,0,1.393.97,1.484,1.484,0,0,0,.53-.1l2.978-1.137a1.486,1.486,0,0,0,.794-.713L57.77,89.2l1.015-1.24,2.552-3.06a1.485,1.485,0,0,0,.321-.691L63,76.637a1.482,1.482,0,0,0-.053-.727l-.711-2.145,1.355-4.1,1.132-.7,1.416-.167a1.485,1.485,0,0,0,1.023-.6l1.756-2.393a5.751,5.751,0,0,0,1.767-.882c.563-.525,1.092-1.092,1.636-1.637a4.426,4.426,0,0,0,1.1-1.375c.275-.645.538-1.3.807-1.943l5.282-2.9a1.486,1.486,0,0,0,.759-1.119l.259-2.088,1.975-1.511,2.65.528a1.485,1.485,0,0,0,1.723-1.847l-2.525-9.275,3.1-1.285,2.129,1.391a1.484,1.484,0,0,0,.65.233l1.573.173-1.762,2.606a1.485,1.485,0,0,0,1.3,2.316l1.162-.057,2.685,3.668a1.485,1.485,0,0,0,2.665-.644l.731-4.607,1.247.239a1.486,1.486,0,0,0,1.746-1.225l.807-5.067.717-.946a1.484,1.484,0,0,0,.288-.7l.121-.91,4.369-1.518a1.485,1.485,0,0,0,.965-1.095l.513-2.418A1.482,1.482,0,0,0,109.142,30.772ZM106.122,32.9,101.68,34.44a1.485,1.485,0,0,0-.985,1.207l-.19,1.429-.7.93a1.487,1.487,0,0,0-.283.664l-.625,3.92-1.248-.239A1.486,1.486,0,0,0,95.9,43.577l-.413,2.6L94.434,44.74a1.483,1.483,0,0,0-.438-.4L95.647,41.9a1.485,1.485,0,0,0-1.068-2.309l-3.668-.4-2.488-1.626a1.485,1.485,0,0,0-1.381-.129L82.01,39.52a1.485,1.485,0,0,0-.864,1.762l2.238,8.22-.955-.19a1.484,1.484,0,0,0-1.192.277l-3,2.3a1.485,1.485,0,0,0-.572,1l-.242,1.953-5.072,2.787a1.485,1.485,0,0,0-.656.732l-.976,2.35-1.957,1.958-1.359.567a1.483,1.483,0,0,0-.625.492L65.155,65.93l-1.1.13a1.487,1.487,0,0,0-.605.211l-1.872,1.154a1.484,1.484,0,0,0-.631.8L59.267,73.3a1.484,1.484,0,0,0,0,.934l.747,2.255L58.8,83.3,56.5,86.065l-1.125,1.374a1.471,1.471,0,0,0-.174.267l-.467.916-1.042.4L42.19,57.941l.53-2.786a1.488,1.488,0,0,0-.091-.855l-1.212-2.872.07-2.373a1.485,1.485,0,0,0-2.665-.944l-3.214,4.213-2.222-1.1L32.369,49.5l.839-.439a1.485,1.485,0,0,0-.035-2.65l-.7-.344-.615-.3,3.754-1.346A1.486,1.486,0,0,0,36.593,43l-.038-2.29a1.485,1.485,0,0,0-.151-.627L34.1,35.364a1.484,1.484,0,0,0-.432-.527l-.219-.168.716-2.1,2.3.738a1.485,1.485,0,0,0,1.552-.415l6.5-7.148a1.484,1.484,0,0,0,.387-.972l.015-.807,3.461-6.238a1.486,1.486,0,0,0-.2-1.725l-4.111-4.476L43.94,6.343a1.487,1.487,0,0,0-.506-1.08L42.188,4.17l1.7-1.017,7.24,3.174a1.487,1.487,0,0,0,.675.123l6.009-.318,1.309.788-2.934,6.024a1.485,1.485,0,0,0,.045,1.386l.246.433-.473.116a1.485,1.485,0,0,0-.89,2.256L58.955,23a1.485,1.485,0,0,0,.762.592l.641.22-.987,3.763a1.486,1.486,0,0,0,.854,1.743l20.148,8.6a1.485,1.485,0,0,0,1.932-.744l1.646-3.566L87.3,36.345a1.486,1.486,0,0,0,.938.334h4.133a1.485,1.485,0,0,0,1.479-1.347l.184-1.975,5.454-3.491a1.485,1.485,0,0,0,.435-.426l.315-.472,4.013-.105,2.074,3.054Z" transform="translate(-26.56 0)" fill="#0d4064"/>
      </g>
    </g>
    <g id="customer" transform="translate(377 1991)">
      <path id="Path_48" data-name="Path 48" d="M7,0A7,7,0,1,1,0,7,7,7,0,0,1,7,0Z" transform="translate(47 8)" fill="#0d4064" stroke="#58595b" stroke-width="2"/>
      <path id="Path_37" data-name="Path 37" d="M432,110.715V97a6.858,6.858,0,1,1,0,13.715Z" transform="translate(-378.137 -88.848)" fill="#fff" opacity="0.12"/>
      <path id="Path_38" data-name="Path 38" d="M372.825,249.415V262.9a3.794,3.794,0,0,1-3.8,3.783H355.875a1.871,1.871,0,0,1-1.87-1.87c0-1.818-1-11.031-1-15.4A8.45,8.45,0,0,1,361.466,241h2.893A8.45,8.45,0,0,1,372.825,249.415Z" transform="translate(-308.987 -214.893)" fill="#0d4064" stroke="#58595b" stroke-width="2"/>
      <path id="Path_39" data-name="Path 39" d="M441.975,249.415V262.9a3.794,3.794,0,0,1-3.8,3.783H432V241h1.509A8.45,8.45,0,0,1,441.975,249.415Z" transform="translate(-378.137 -214.893)" fill="#fff" opacity="0.13"/>
      <path id="Path_47" data-name="Path 47" d="M7,0A7,7,0,1,1,0,7,7,7,0,0,1,7,0Z" transform="translate(3 8)" fill="#f15b2e" stroke="#58595b" stroke-width="2"/>
      <path id="Path_40" data-name="Path 40" d="M80,110.715V97a6.858,6.858,0,0,1,0,13.715Z" transform="translate(-70.025 -88.848)" fill="#fff" opacity="0.13"/>
      <path id="Path_41" data-name="Path 41" d="M19.825,249.415c0,4.509-1,13.5-1,15.4a1.871,1.871,0,0,1-1.87,1.87H3.667A3.664,3.664,0,0,1,0,263.032V249.415A8.45,8.45,0,0,1,8.466,241h2.893A8.45,8.45,0,0,1,19.825,249.415Z" transform="translate(0 -214.894)" fill="#f15b2e" stroke="#58595b" stroke-width="2"/>
      <path id="Path_42" data-name="Path 42" d="M89.85,249.415c0,4.509-1,13.5-1,15.4a1.871,1.871,0,0,1-1.87,1.87H80V241h1.384A8.45,8.45,0,0,1,89.85,249.415Z" transform="translate(-70.025 -214.894)" fill="#fff" opacity="0.13"/>
      <path id="Path_46" data-name="Path 46" d="M11,0A11,11,0,1,1,0,11,11,11,0,0,1,11,0Z" transform="translate(21)" fill="#f19328" stroke="#58595b" stroke-width="2"/>
      <path id="Path_43" data-name="Path 43" d="M256,54.695V33a10.847,10.847,0,0,1,0,21.695Z" transform="translate(-224.081 -32.828)" fill="#fff" opacity="0.13"/>
      <path id="Path_44" data-name="Path 44" d="M154.665,256.089v10.219a4.371,4.371,0,0,1-4.366,4.366H125.366A4.371,4.371,0,0,1,121,266.308V256.089A15.106,15.106,0,0,1,136.089,241h3.486a15.106,15.106,0,0,1,15.089,15.089Z" transform="translate(-105.913 -214.894)" fill="#f19328" stroke="#58595b" stroke-width="2"/>
      <path id="Path_45" data-name="Path 45" d="M272.832,256.089v10.219a4.371,4.371,0,0,1-4.366,4.366H256V241h1.743A15.106,15.106,0,0,1,272.832,256.089Z" transform="translate(-224.081 -214.893)" fill="#fff" opacity="0.1"/>
    </g>
  </g>
</svg>
