<svg xmlns="http://www.w3.org/2000/svg" width="95.616" height="99.526" viewBox="0 0 95.616 99.526">
  <g id="air-pollution" transform="translate(-10.058)">
    <path id="Path_55" data-name="Path 55" d="M17.545,327.171H86v34.473H17.545Z" transform="translate(-6.032 -263.573)" fill="#ecf6fe"/>
    <path id="Path_56" data-name="Path 56" d="M55.942,388.33H77.288v8.538H55.942Z" transform="translate(-36.965 -312.844)" fill="#f19328"/>
    <path id="Path_57" data-name="Path 57" d="M55.942,388.33h5.821v8.538H55.942Z" transform="translate(-36.965 -312.844)" fill="#f19328"/>
    <path id="Path_58" data-name="Path 58" d="M93.526,35.322V31.34a3.515,3.515,0,0,0-3.515-3.515h-34.3a6.249,6.249,0,0,0-6.249,6.249,6.249,6.249,0,0,1-6.249,6.249H23.794a6.249,6.249,0,1,1,0-12.5h4.678a4.483,4.483,0,0,0,0-8.965h-5.24a5.687,5.687,0,1,1,0-11.374H55.626a5.289,5.289,0,0,1,5.289,5.289A5.289,5.289,0,0,0,66.2,18.065h39.119a4.77,4.77,0,0,1,4.77,4.77v.427A4.343,4.343,0,0,1,105.75,27.6a3.515,3.515,0,0,0-3.515,3.515v4.2H93.526Z" transform="translate(-6.032 -6.031)" fill="#bcbec0"/>
    <path id="Path_59" data-name="Path 59" d="M37.465,20.175A4.481,4.481,0,0,1,34.3,27.826H29.618a6.249,6.249,0,0,0,0,12.5H23.8a6.249,6.249,0,0,1,0-12.5h4.678a4.483,4.483,0,0,0,0-8.965H23.234a5.687,5.687,0,1,1,0-11.373h5.821a5.687,5.687,0,0,0,0,11.373H34.3a4.471,4.471,0,0,1,3.169,1.314Z" transform="translate(-6.034 -6.032)" fill="#fff" opacity="0.41"/>
    <path id="Path_60" data-name="Path 60" d="M50.818,269.342,73.16,255.389v13.953Z" transform="translate(-32.837 -205.745)" fill="#f19328"/>
    <path id="Path_61" data-name="Path 61" d="M216.544,269.342l22.342-13.953v13.953Z" transform="translate(-166.348 -205.745)" fill="#f19328"/>
    <path id="Path_62" data-name="Path 62" d="M17.548,327.175h5.821v34.471H17.548Z" transform="translate(-6.034 -263.577)" fill="#dbebfc"/>
    <path id="Path_63" data-name="Path 63" d="M390.588,150.686h11.934l1.941,34.306H388.647Z" transform="translate(-304.996 -121.395)" fill="#eaf6ff"/>
    <path id="Path_64" data-name="Path 64" d="M396.409,150.69,394.469,185h-5.822l1.941-34.306Z" transform="translate(-304.996 -121.398)" fill="#d8ecfe"/>
    <path id="Path_65" data-name="Path 65" d="M398.992,213.462l-.46,8.15H392.71l.46-8.15Z" transform="translate(-308.27 -171.968)" fill="#fe646f"/>
    <path id="Path_66" data-name="Path 66" d="M406.486,213.462H393.17l-.46,8.15h14.236Z" transform="translate(-308.27 -171.968)" fill="#f15b2e"/>
    <path id="Path_67" data-name="Path 67" d="M398.992,213.462l-.46,8.15H392.71l.46-8.15Z" transform="translate(-308.27 -171.968)" fill="#fff" opacity="0.12"/>
    <path id="Path_68" data-name="Path 68" d="M369.72,327.171h23.173v34.473H369.72Z" transform="translate(-289.749 -263.573)" fill="#0d4064"/>
    <path id="Path_69" data-name="Path 69" d="M369.72,327.175h9.7v34.472h-9.7Z" transform="translate(-289.749 -263.577)" fill="#fff" opacity="0.2"/>
    <path id="Path_70" data-name="Path 70" d="M219.106,388.33h21.346v8.538H219.106Z" transform="translate(-168.412 -312.844)" fill="#b3dafe"/>
    <path id="Path_71" data-name="Path 71" d="M219.106,388.33h21.346v8.538H219.106Z" transform="translate(-168.412 -312.844)" fill="#f19328"/>
    <path id="Path_72" data-name="Path 72" d="M219.11,388.33h5.822v8.538H219.11Z" transform="translate(-168.415 -312.844)" fill="#f19328"/>
    <g id="Group_11" data-name="Group 11" transform="translate(10.058 0)">
      <path id="Path_73" data-name="Path 73" d="M99.718,23.028c8.026,0,7.994-12.45-.427-12.45h-24.9a1.455,1.455,0,0,0,0,2.911h24.9c3.907,0,4.565,6.241.427,6.629a4.976,4.976,0,0,0-4.97,4.972v2.747h-5.8V25.308a4.975,4.975,0,0,0-4.969-4.97h-34.3a7.77,7.77,0,0,0-7.7,7.7,4.8,4.8,0,0,1-4.795,4.8H17.763a4.794,4.794,0,0,1,0-9.588h4.678a5.938,5.938,0,1,0,0-11.876H17.2a4.231,4.231,0,0,1,0-8.462h32.4a3.835,3.835,0,0,1,3.834,3.834,6.751,6.751,0,0,0,6.743,6.743h7.873a1.455,1.455,0,0,0,0-2.911H60.172A3.837,3.837,0,0,1,56.34,6.745,6.8,6.8,0,0,0,49.595,0H17.2a7.142,7.142,0,0,0,0,14.284h5.241a3.027,3.027,0,1,1,0,6.054H17.763a7.7,7.7,0,0,0,0,15.41H37.183a7.715,7.715,0,0,0,7.706-7.706,4.792,4.792,0,0,1,4.793-4.793h34.3a2.061,2.061,0,0,1,2.059,2.059v2.528H81.57a1.455,1.455,0,1,0,0,2.911h2.481l-1.776,31.4H73.993v-12.5c.025-1.455-.979-1.922-2.226-1.234L49.779,62.142h-8v-12.5c0-1.412-.951-1.947-2.226-1.234L17.564,62.142H11.513A1.455,1.455,0,0,0,10.058,63.6V98.071a1.455,1.455,0,0,0,1.455,1.455h91.632a1.455,1.455,0,0,0,1.455-1.455v-8.5a1.455,1.455,0,0,0-2.911,0v7.047H81.427V65.054H101.69V83.192a1.455,1.455,0,1,0,2.911,0V63.6a1.455,1.455,0,0,0-1.455-1.455h-2.3l-1.776-31.4h2.481a1.455,1.455,0,0,0,0-2.911H97.659V25.089a2.062,2.062,0,0,1,2.059-2.061ZM71.083,52.269v9.873H55.274Zm-32.215,0v9.873H23.059Zm-25.9,12.784H78.516V96.615H12.969ZM96.149,30.747l.526,9.292H86.441l.526-9.292Zm1.776,31.4H85.191L85.815,51.1H97.3Zm-.789-13.953H85.98l.3-5.239H96.839Z" transform="translate(-10.058 0)"/>
      <path id="Path_74" data-name="Path 74" d="M71.256,380.843H64.7a1.455,1.455,0,1,0,0,2.911H69.8v5.628H51.366v-5.628h6.986a1.455,1.455,0,1,0,0-2.911H49.91a1.455,1.455,0,0,0-1.455,1.455v8.538a1.455,1.455,0,0,0,1.455,1.455H71.256a1.455,1.455,0,0,0,1.455-1.455V382.3A1.455,1.455,0,0,0,71.256,380.843Z" transform="translate(-40.991 -306.812)"/>
      <path id="Path_75" data-name="Path 75" d="M234.421,380.843H213.075a1.455,1.455,0,0,0-1.455,1.455v8.538a1.455,1.455,0,0,0,1.455,1.455h21.346a1.455,1.455,0,0,0,1.455-1.455V382.3A1.455,1.455,0,0,0,234.421,380.843Zm-1.455,8.538H214.531v-5.628h18.435Z" transform="translate(-172.439 -306.812)"/>
    </g>
  </g>
</svg>
