<svg xmlns="http://www.w3.org/2000/svg" width="92" height="92" viewBox="0 0 92 92">
  <g id="Group_6" data-name="Group 6" transform="translate(-139 -2072)">
    <g id="flask" transform="translate(139 2072)">
      <path id="Path_2" data-name="Path 2" d="M140.472,88h0Z" transform="translate(-110.795 -71.677)" fill="#f19328"/>
      <path id="Path_3" data-name="Path 3" d="M356.472,128h0Z" transform="translate(-286.73 -104.258)" fill="#bcbec0"/>
      <path id="Path_5" data-name="Path 5" d="M284.472,88h0Z" transform="translate(-228.085 -71.677)" fill="#f19328"/>
      <path id="Path_6" data-name="Path 6" d="M212.472,48h0Z" transform="translate(-169.44 -39.097)" fill="#bcbec0"/>
      <path id="Path_7" data-name="Path 7" d="M284.472,8h0Z" transform="translate(-228.085 -6.516)" fill="#f19328"/>
      <path id="Path_8" data-name="Path 8" d="M356.472,48h0Z" transform="translate(-286.73 -39.097)" fill="#f15b2e"/>
      <path id="Path_9" data-name="Path 9" d="M356.472,208h0Z" transform="translate(-286.73 -169.419)" fill="#f19328"/>
      <path id="Path_10" data-name="Path 10" d="M43.613,138.968h0A2.976,2.976,0,0,0,40.645,136H25.806a2.976,2.976,0,0,0-2.968,2.968h0a2.976,2.976,0,0,0,2.968,2.968h0v17.806L8.742,191.052A6.656,6.656,0,0,0,8,193.871v1.484a5.953,5.953,0,0,0,5.935,5.935H52.516a5.953,5.953,0,0,0,5.935-5.935v-1.484a6.138,6.138,0,0,0-.742-2.819l-17.065-31.31V141.935h0A2.976,2.976,0,0,0,43.613,138.968Z" transform="translate(-6.516 -110.774)" fill="#d3d2d6"/>
      <path id="Path_11" data-name="Path 11" d="M46,196.258H7.419A7.347,7.347,0,0,1,0,188.839v-1.484a7.457,7.457,0,0,1,.89-3.561l16.916-31.013V136.606a4.343,4.343,0,0,1-2.671-5.639A4.463,4.463,0,0,1,19.29,128H34.129a4.372,4.372,0,0,1,4.452,4.452,4.322,4.322,0,0,1-2.968,4.155v16.174l16.916,31.013a7.457,7.457,0,0,1,.89,3.561v1.484A7.347,7.347,0,0,1,46,196.258Zm-26.71-65.29a1.484,1.484,0,1,0,0,2.968,1.4,1.4,0,0,1,1.484,1.484v17.806a1.338,1.338,0,0,1-.148.742L3.561,185.277a3.407,3.407,0,0,0-.594,2.077v1.484a4.372,4.372,0,0,0,4.452,4.452H46a4.372,4.372,0,0,0,4.452-4.452h0v-1.484a3.407,3.407,0,0,0-.594-2.077l-17.065-31.31a1.338,1.338,0,0,1-.148-.742V135.419a1.4,1.4,0,0,1,1.484-1.484,1.484,1.484,0,1,0,0-2.968Z" transform="translate(0 -104.258)" fill="#58595b"/>
      <path id="Path_12" data-name="Path 12" d="M52.516,357.677a5.953,5.953,0,0,0,5.935-5.935v-1.484a6.138,6.138,0,0,0-.742-2.819L47.174,328H44.948a2.929,2.929,0,0,0-2.077.89l-1.187,1.187a2.93,2.93,0,0,1-2.077.89h-.445a2.93,2.93,0,0,1-2.077-.89L35.9,328.89a2.929,2.929,0,0,0-2.077-.89h-.445a2.929,2.929,0,0,0-2.077.89l-1.187,1.187a2.93,2.93,0,0,1-2.077.89h-.445a2.93,2.93,0,0,1-2.077-.89l-1.187-1.187a2.929,2.929,0,0,0-2.077-.89H19.277L8.742,347.439A6.138,6.138,0,0,0,8,350.258v1.484a5.953,5.953,0,0,0,5.935,5.935Z" transform="translate(-6.516 -267.161)" fill="#f19328"/>
      <path id="Path_13" data-name="Path 13" d="M46,352.645H7.419A7.347,7.347,0,0,1,0,345.226v-1.484a7.456,7.456,0,0,1,.89-3.561l10.535-19.439A1.771,1.771,0,0,1,12.761,320h2.226a4.041,4.041,0,0,1,3.116,1.335l1.187,1.187a1.347,1.347,0,0,0,1.039.445h.445a1.347,1.347,0,0,0,1.039-.445L23,321.335A4.271,4.271,0,0,1,26.116,320h.445a4.041,4.041,0,0,1,3.116,1.335l1.187,1.187a1.347,1.347,0,0,0,1.039.445h.445a1.347,1.347,0,0,0,1.039-.445l1.187-1.187A4.271,4.271,0,0,1,37.69,320h2.226a1.558,1.558,0,0,1,1.335.742l10.535,19.439a7.456,7.456,0,0,1,.89,3.561v1.484C53.419,349.381,50.155,352.645,46,352.645ZM13.652,322.968l-10.09,18.7a3.407,3.407,0,0,0-.594,2.077v1.484a4.372,4.372,0,0,0,4.452,4.452H46a4.372,4.372,0,0,0,4.452-4.452h0v-1.484a3.407,3.407,0,0,0-.594-2.077l-10.09-18.7H38.432a1.347,1.347,0,0,0-1.039.445L36.206,324.6a4.868,4.868,0,0,1-3.265,1.335H32.5a4.041,4.041,0,0,1-3.116-1.335l-1.187-1.187a1.347,1.347,0,0,0-1.039-.445H26.71a1.347,1.347,0,0,0-1.039.445L24.484,324.6a5.533,5.533,0,0,1-3.413,1.335h-.445A4.041,4.041,0,0,1,17.51,324.6l-1.187-1.187a1.347,1.347,0,0,0-1.039-.445Z" transform="translate(0 -260.645)" fill="#f19328"/>
      <circle id="Ellipse_3" data-name="Ellipse 3" cx="4.5" cy="4.5" r="4.5" transform="translate(9 75.571)" fill="#fff"/>
      <path id="Path_14" data-name="Path 14" d="M45.935,411.871a5.935,5.935,0,1,1,5.935-5.935A5.953,5.953,0,0,1,45.935,411.871Zm0-8.9a2.968,2.968,0,1,0,2.968,2.968A2.976,2.976,0,0,0,45.935,402.968Z" transform="translate(-32.581 -325.807)"/>
      <ellipse id="Ellipse_4" data-name="Ellipse 4" cx="3.5" cy="3" rx="3.5" ry="3" transform="translate(25 78.571)" fill="#fff"/>
      <path id="Path_15" data-name="Path 15" d="M132.452,424.9a4.452,4.452,0,1,1,4.452-4.452A4.372,4.372,0,0,1,132.452,424.9Zm0-5.935a1.484,1.484,0,1,0,1.484,1.484A1.4,1.4,0,0,0,132.452,418.968Z" transform="translate(-104.258 -338.839)"/>
      <ellipse id="Ellipse_5" data-name="Ellipse 5" cx="3" cy="3.5" rx="3" ry="3.5" transform="translate(34 68.571)" fill="#fff"/>
      <path id="Path_16" data-name="Path 16" d="M180.452,376.9a4.452,4.452,0,1,1,4.452-4.452A4.372,4.372,0,0,1,180.452,376.9Zm0-5.936a1.484,1.484,0,1,0,1.484,1.484A1.4,1.4,0,0,0,180.452,370.968Z" transform="translate(-143.355 -299.742)"/>
      <rect id="Rectangle_15" data-name="Rectangle 15" width="4" height="2" transform="translate(14 68.571)"/>
      <rect id="Rectangle_16" data-name="Rectangle 16" width="3" height="2" transform="translate(21 68.571)"/>
      <rect id="Rectangle_17" data-name="Rectangle 17" width="4" height="3" transform="translate(44 83.571)"/>
      <rect id="Rectangle_18" data-name="Rectangle 18" width="2" height="3" transform="translate(39 83.571)"/>
      <path id="Path_17" data-name="Path 17" d="M320.939,280v12.613A13.375,13.375,0,1,0,338,300.774a13.116,13.116,0,0,0-8.161-8.161V280" transform="translate(-254.165 -228.064)" fill="#d3d2d6"/>
      <path id="Path_18" data-name="Path 18" d="M318.839,320.065a14.87,14.87,0,0,1-5.935-28.49V280h2.968v12.613a1.425,1.425,0,0,1-1.039,1.335,11.873,11.873,0,1,0,15.135,7.271,11.787,11.787,0,0,0-7.271-7.271,1.425,1.425,0,0,1-1.039-1.335V280h2.968v11.574a14.86,14.86,0,0,1,7.716,19.587A14.63,14.63,0,0,1,318.839,320.065Z" transform="translate(-247.613 -228.064)" fill="#58595b"/>
      <path id="Path_19" data-name="Path 19" d="M327.525,422.839a13.364,13.364,0,0,0,13.355-13.206,6.086,6.086,0,0,0-.148-1.632H339.1a2.93,2.93,0,0,0-2.077.89l-1.187,1.187a2.93,2.93,0,0,1-2.077.89h-.445a2.93,2.93,0,0,1-2.077-.89l-1.187-1.187a2.93,2.93,0,0,0-2.077-.89h-.445a2.93,2.93,0,0,0-2.077.89l-1.187,1.187a2.93,2.93,0,0,1-2.077.89h-.445a2.93,2.93,0,0,1-2.077-.89l-1.187-1.187A2.93,2.93,0,0,0,316.4,408h-1.632a13.115,13.115,0,0,0,11.574,14.69C326.486,422.839,326.931,422.839,327.525,422.839Z" transform="translate(-256.299 -332.323)" fill="#f19328"/>
      <path id="Path_20" data-name="Path 20" d="M318.839,417.806A14.756,14.756,0,0,1,304,403.116a7.225,7.225,0,0,1,.148-1.781A1.578,1.578,0,0,1,305.632,400h1.632a4.041,4.041,0,0,1,3.116,1.335l1.187,1.187a1.347,1.347,0,0,0,1.039.445h.445a1.347,1.347,0,0,0,1.039-.445l1.187-1.187A4.271,4.271,0,0,1,318.394,400h.445a4.041,4.041,0,0,1,3.116,1.335l1.187,1.187a1.347,1.347,0,0,0,1.039.445h.445a1.347,1.347,0,0,0,1.039-.445l1.187-1.187A4.271,4.271,0,0,1,329.968,400H331.6a1.578,1.578,0,0,1,1.484,1.335,14.715,14.715,0,0,1-12.91,16.323A2.929,2.929,0,0,1,318.839,417.806Zm-11.871-14.839a11.871,11.871,0,1,0,23.742,0h-.3a1.347,1.347,0,0,0-1.039.445l-1.187,1.187a4.271,4.271,0,0,1-3.116,1.336h-.445a4.041,4.041,0,0,1-3.116-1.336l-1.187-1.187a1.347,1.347,0,0,0-1.039-.445h-.445a1.347,1.347,0,0,0-1.039.445l-1.187,1.187a5.533,5.533,0,0,1-3.413,1.336h-.445a4.041,4.041,0,0,1-3.116-1.336l-1.187-1.187a1.347,1.347,0,0,0-1.039-.445Z" transform="translate(-247.613 -325.806)" fill="#f19328"/>
      <rect id="Rectangle_19" data-name="Rectangle 19" width="19" height="3" transform="translate(62 50.571)" fill="#58595b"/>
      <rect id="Rectangle_20" data-name="Rectangle 20" width="2" height="3" transform="translate(67 83.571)"/>
      <rect id="Rectangle_21" data-name="Rectangle 21" width="3" height="3" transform="translate(73 83.571)"/>
      <path id="Path_21" data-name="Path 21" d="M216.5,57.065l-2.523-1.484,4.006-6.677-3.561-5.935h-7.271L203.59,48.9l4.006,6.677-2.523,1.484-4.452-7.419a1.348,1.348,0,0,1,0-1.484l4.452-7.419A1.175,1.175,0,0,1,206.261,40h8.9a1.558,1.558,0,0,1,1.335.742l4.452,7.419a1.348,1.348,0,0,1,0,1.484Z" transform="translate(-163.229 -32.581)"/>
      <path id="Path_22" data-name="Path 22" d="M286.513,97.806h-8.9a1.558,1.558,0,0,1-1.335-.742l-4.452-7.419a1.348,1.348,0,0,1,0-1.484l4.452-7.419A1.558,1.558,0,0,1,277.61,80h8.9a1.558,1.558,0,0,1,1.336.742l4.452,7.419a1.348,1.348,0,0,1,0,1.484l-4.452,7.419A1.558,1.558,0,0,1,286.513,97.806ZM278.5,94.839h7.271l3.561-5.935-3.561-5.935H278.5L274.939,88.9Z" transform="translate(-221.223 -65.161)"/>
      <path id="Path_23" data-name="Path 23" d="M358.513,137.806h-8.9a1.558,1.558,0,0,1-1.335-.742l-4.452-7.419a1.348,1.348,0,0,1,0-1.484l4.452-7.419A1.558,1.558,0,0,1,349.61,120h8.9a1.558,1.558,0,0,1,1.335.742l4.452,7.419a1.348,1.348,0,0,1,0,1.484l-4.452,7.419A1.558,1.558,0,0,1,358.513,137.806Zm-8.013-2.968h7.271l3.561-5.935-3.561-5.935H350.5l-3.561,5.935Z" transform="translate(-279.868 -97.742)"/>
      <path id="Path_24" data-name="Path 24" d="M424.071,213.645H421.1v-1.039l-4.3-7.123L419.323,204l4.452,7.419c.3.148.3.445.3.742Z" transform="translate(-339.49 -166.161)"/>
      <path id="Path_25" data-name="Path 25" d="M358.513,57.806h-8.9a1.558,1.558,0,0,1-1.335-.742l-4.452-7.419a1.348,1.348,0,0,1,0-1.484l4.452-7.419A1.558,1.558,0,0,1,349.61,40h8.9a1.558,1.558,0,0,1,1.335.742l4.006,6.677h8.013v2.968h-8.9a1.558,1.558,0,0,1-1.335-.742l-4.006-6.677h-7.271L346.79,48.9l3.561,5.935h8.161Z" transform="translate(-279.868 -32.581)"/>
      <rect id="Rectangle_22" data-name="Rectangle 22" width="8" height="2" transform="translate(84 29.571)"/>
      <rect id="Rectangle_23" data-name="Rectangle 23" width="8.606" height="2.968" transform="translate(84.359 2.305) rotate(120.972)"/>
      <path id="Path_26" data-name="Path 26" d="M287.49,17.806h-8.9a1.558,1.558,0,0,1-1.335-.742L272.8,9.645l2.523-1.484,4.007,6.677H286.6L290.161,8.9,286.6,2.968h-8.013V0h8.9a1.558,1.558,0,0,1,1.335.742l4.452,7.419a1.348,1.348,0,0,1,0,1.484l-4.452,7.419A1.558,1.558,0,0,1,287.49,17.806Z" transform="translate(-222.2)"/>
      <path id="Path_27" data-name="Path 27" d="M287.49,177.806h-8.9v-2.968H286.6l3.561-5.935-3.561-5.936h-7.271l-4.007,6.677-2.523-1.484,4.452-7.419a1.558,1.558,0,0,1,1.335-.742h8.9a1.558,1.558,0,0,1,1.335.742l4.452,7.419a1.348,1.348,0,0,1,0,1.484l-4.452,7.419A1.558,1.558,0,0,1,287.49,177.806Z" transform="translate(-222.2 -130.323)"/>
      <path id="Path_28" data-name="Path 28" d="M130.968,90.387H128V88.9a1.112,1.112,0,0,1,.148-.742l4.452-7.419A1.558,1.558,0,0,1,133.935,80h8.9v2.968h-8.013l-3.858,6.381Z" transform="translate(-104.258 -65.161)"/>
      <rect id="Rectangle_24" data-name="Rectangle 24" width="9" height="3" transform="translate(67 56.571)" fill="#58595b"/>
      <rect id="Rectangle_25" data-name="Rectangle 25" width="14" height="4" transform="translate(20 31.571)" fill="#58595b"/>
      <circle id="Ellipse_6" data-name="Ellipse 6" cx="3" cy="3" r="3" transform="translate(17 13.571)" fill="#789dc3"/>
      <path id="Path_29" data-name="Path 29" d="M84.452,72.9A4.452,4.452,0,1,1,88.9,68.452,4.372,4.372,0,0,1,84.452,72.9Zm0-5.935a1.484,1.484,0,1,0,1.484,1.484A1.4,1.4,0,0,0,84.452,66.968Z" transform="translate(-65.161 -52.129)"/>
      <ellipse id="Ellipse_7" data-name="Ellipse 7" cx="4.5" cy="4" rx="4.5" ry="4" transform="translate(25 1.571)" fill="#f19328"/>
      <path id="Path_30" data-name="Path 30" d="M133.935,11.871a5.935,5.935,0,1,1,5.936-5.935A5.953,5.953,0,0,1,133.935,11.871Zm0-8.9A2.968,2.968,0,1,0,136.9,5.935,2.976,2.976,0,0,0,133.935,2.968Z" transform="translate(-104.258)"/>
      <circle id="Ellipse_8" data-name="Ellipse 8" cx="6" cy="6" r="6" transform="translate(2 1.571)" fill="#f19328"/>
      <path id="Path_31" data-name="Path 31" d="M7.419,14.839A7.347,7.347,0,0,1,0,7.419,7.347,7.347,0,0,1,7.419,0a7.347,7.347,0,0,1,7.419,7.419A7.347,7.347,0,0,1,7.419,14.839Zm0-11.871A4.372,4.372,0,0,0,2.968,7.419a4.372,4.372,0,0,0,4.452,4.452,4.372,4.372,0,0,0,4.452-4.452A4.372,4.372,0,0,0,7.419,2.968Z"/>
    </g>
  </g>
</svg>
